# xmcd
#
# Track frame offsets: 
#        150
#        16137
#        36536
#        55285
#        71935
#        90835
#        113634
#        126155
#        146029
#        162829
#        182179
#        197718
#
# Disc length: 2872 seconds
#
# Revision: 0
# Processed by: cddbd v1.5.2PL0 Copyright (c) Steve Scherf et al.
# Submitted via: ExactAudioCopy v1.0b1
#
DISCID=a90b360c
DTITLE=Bluebell - Eu So do Tempo em Que a Gente se Telefonava
DYEAR=2010
DGENRE=Blues
TTITLE0=Musica
TTITLE1=Chalala
TTITLE2=Triz
TTITLE3=1,2,3,5
TTITLE4=Good Hearted Woman
TTITLE5=My Best
TTITLE6=What If...
TTITLE7=Estrangeira
TTITLE8=Mao e Luva
TTITLE9=Pessoa Normal
TTITLE10=Velvet Wonderland
TTITLE11=Chalala (versao original)
EXTD=
EXTT0=
EXTT1=
EXTT2=
EXTT3=
EXTT4=
EXTT5=
EXTT6=
EXTT7=
EXTT8=
EXTT9=
EXTT10=
EXTT11=
PLAYORDER=
